<?xml version="1.0" encoding="utf-8"?>
<!-- Generator: Adobe Illustrator 17.1.0, SVG Export Plug-In . SVG Version: 6.00 Build 0)  -->
<!DOCTYPE svg PUBLIC "-//W3C//DTD SVG 1.1//EN" "http://www.w3.org/Graphics/SVG/1.1/DTD/svg11.dtd">
<svg version="1.1" id="Capa_1" xmlns="http://www.w3.org/2000/svg" xmlns:xlink="http://www.w3.org/1999/xlink" x="0px" y="0px"
	 viewBox="0 0 52 52" enable-background="new 0 0 52 52" xml:space="preserve">
<path d="M29.2,47.5c-0.4-0.3-0.7-0.9-0.7-1.4v-7.6c0-1,0.6-1.9,1.5-2.2c3.6-1.4,6.2-4.6,6.8-8.5c0.2-1,0.9-1.8,1.9-2l7.4-1.6
	c0.5-0.1,1.1,0,1.5,0.4c0.2,0.1,0.3,0.3,0.4,0.5c1.4,0,2.3,0,3.8,0c-0.1-2.5-0.5-4.8-1.3-7.1c-1.6,0-2.6,0-4.3,0
	c0,0.1-0.1,0.2-0.1,0.3c-0.2,0.5-0.7,0.8-1.2,1l-7.4,1.6c-1,0.2-2-0.2-2.5-1c-2-2.9-5.3-4.9-9.1-4.9c-3.8,0-7.2,1.9-9.1,4.9
	c-0.6,0.8-1.5,1.2-2.5,1l-7.4-1.6c-0.5-0.1-1-0.5-1.2-1c-0.1-0.1-0.1-0.3-0.1-0.4c-1.7,0-2.7,0-4.2,0c0,0.1-0.1,0.2-0.1,0.4
	c-0.7,2.1-1,4.4-1.1,6.7c1.5,0,2.5,0,3.9,0c0.1-0.2,0.2-0.3,0.4-0.4c0.4-0.3,1-0.5,1.5-0.4l7.4,1.6c1,0.2,1.7,1,1.9,2
	c0.6,3.9,3.3,7.1,6.8,8.5c0.9,0.4,1.5,1.3,1.5,2.2v7.6c0,0.5-0.2,1.1-0.7,1.4c-0.3,0.2-0.6,0.3-0.9,0.4c0,1.4,0,2.4,0,3.8
	c1.3,0.2,2.7,0.3,4.1,0.3c1.4,0,2.7-0.1,4-0.3c0-1.4,0-2.4,0-3.8C29.7,47.8,29.4,47.7,29.2,47.5z M44.1,20.7c0.7,0,1.2,0.6,1.2,1.2
	c0,0.7-0.6,1.2-1.2,1.2c-0.7,0-1.2-0.6-1.2-1.2C42.9,21.3,43.4,20.7,44.1,20.7z M40.5,21.6c0.7,0,1.2,0.6,1.2,1.2s-0.6,1.2-1.2,1.2
	c-0.7,0-1.2-0.6-1.2-1.2C39.3,22.2,39.8,21.6,40.5,21.6z M7.8,23.2c-0.7,0-1.2-0.6-1.2-1.2c0-0.7,0.6-1.2,1.2-1.2
	c0.7,0,1.2,0.6,1.2,1.2C9.1,22.7,8.5,23.2,7.8,23.2z M11.5,24.1c-0.7,0-1.2-0.6-1.2-1.2c0-0.7,0.6-1.2,1.2-1.2
	c0.7,0,1.2,0.6,1.2,1.2S12.1,24.1,11.5,24.1z M24.7,40.6c0.1-0.7,0.8-1.1,1.5-0.9c0.7,0.1,1.1,0.8,0.9,1.5c-0.1,0.7-0.8,1.1-1.5,0.9
	C25,41.9,24.5,41.3,24.7,40.6z M27.2,44.9c-0.1,0.7-0.8,1.1-1.5,0.9c-0.7-0.1-1.1-0.8-0.9-1.5c0.1-0.7,0.8-1.1,1.5-0.9
	C26.9,43.5,27.3,44.2,27.2,44.9z"/>
<g>
	<path fill="#FFFFFF" d="M31.5,49.2C42,46.7,49.6,37.3,49.8,26.5h0.6c-0.2,11.2-8.2,20.9-19,23.4V49.2z"/>
	<path d="M51.9,25c-1.5,0-2.5,0-3.8,0c0.2,0.3,0.3,0.6,0.3,0.9c0,0,0,0.1,0,0.1c0,10.7-7.6,19.7-17.6,21.8c-0.1,0-0.2,0-0.4,0
		c-0.1,0-0.2,0-0.4,0c0,1.4,0,2.4,0,3.8C42.4,49.8,52,39,52,26C52,25.7,51.9,25.3,51.9,25L51.9,25z"/>
</g>
<g>
	<path fill="#FFFFFF" d="M20.4,49.8C9.7,47.3,1.7,37.6,1.5,26.5h0.6C2.4,37.3,10,46.7,20.4,49.2V49.8z"/>
	<path d="M3.9,25c-1.4,0-2.4,0-3.9,0c0,0.3,0,0.7,0,1c0,12.9,9.5,23.7,21.9,25.7c0-1.4,0-2.4,0-3.8c-0.1,0-0.2,0-0.3,0
		c-0.1,0-0.2,0-0.3,0C11.2,45.7,3.6,36.7,3.6,26c0,0,0,0,0,0C3.6,25.6,3.7,25.3,3.9,25L3.9,25z"/>
</g>
<g>
	<path fill="#FFFFFF" d="M47.8,16.4c0-0.1-0.1-0.2-0.1-0.4C43.8,7.6,35.3,2.1,26,2.1c-9.3,0-17.8,5.5-21.7,14c0,0.1-0.1,0.2-0.1,0.3
		H3.5C7.3,7.4,16.1,1.5,26,1.5c9.9,0,18.7,5.9,22.5,14.9H47.8z"/>
	<path d="M26,0C14.5,0,4.7,7.5,1.3,17.9c1.6,0,2.6,0,4.2,0c-0.1-0.4-0.1-0.8,0.1-1.2C9.2,9,17,3.6,26,3.6c9,0,16.8,5.3,20.3,13
		c0.2,0.4,0.2,0.8,0.1,1.2c1.7,0,2.7,0,4.3,0C47.3,7.5,37.5,0,26,0L26,0z"/>
</g>
</svg>
